<svg width="262" height="262" viewBox="0 0 262 262" fill="none" xmlns="http://www.w3.org/2000/svg">
<rect width="262" height="262" rx="44" fill="#D9D9D9"/>
<path fill-rule="evenodd" clip-rule="evenodd" d="M118.5 13.5C123.18 11.02 128.35 9 130 9C131.65 9 139.07 11.93 146.5 15.5C153.93 19.07 165.18 24.02 171.5 26.5C177.82 28.98 188.4 32.8 195 35C201.6 37.2 212.85 40.35 220 42C230.17 44.35 233.22 45.43 234 47C234.55 48.1 235.23 58.45 235.5 70C235.77 81.55 235.55 96.85 235 104C234.45 111.15 232.88 122.62 231.5 129.5C230.12 136.38 227.43 146.73 225.5 152.5C223.57 158.27 220.2 166.83 218 171.5C215.8 176.17 211.07 184.5 207.5 190C203.93 195.5 198.07 203.38 194.5 207.5C190.93 211.62 184.4 218.15 180 222C175.6 225.85 167.27 232.15 161.5 236C155.72 239.85 146.95 245.02 142 247.5C137.05 249.98 131.65 252 130 252C128.17 252 122.92 249.67 116.5 246C110.72 242.7 101.5 236.85 96 233C90.5 229.15 82.85 223.08 79 219.5C75.15 215.92 69.07 209.4 65.5 205C61.93 200.6 56.97 194.08 54.5 190.5C52.03 186.92 47.75 179.27 45 173.5C42.25 167.73 38.2 157.6 36 151C33.8 144.4 31.1 134.5 30 129C28.9 123.5 27.55 114.95 27 110C26.45 105.05 26 89.07 26 74.5C26 52.28 26.24 47.76 27.5 46.5C28.33 45.68 36.88 42.98 46.5 40.5C56.12 38.02 68.28 34.43 73.5 32.5C78.72 30.57 89.07 26.52 96.5 23.5C103.93 20.48 113.82 15.98 118.5 13.5ZM150.5 108C131.53 126.7 115.1 142.23 114 142.5C112.46 142.88 108.41 139.52 96.5 128C84.93 116.8 80.37 113 78.5 113C76.8 113 74.73 114.43 72 117.5C68.95 120.93 68.12 122.6 68.5 124.5C68.8 126.02 77.26 135.45 90 148.5C103.51 162.33 111.71 170 113 170C114.29 170 129.68 155.5 156.5 129C192.83 93.1 198 87.63 198 85C198 83 196.83 80.67 194.5 78C191.88 75 190.25 74 188 74C185.4 74 180.38 78.56 150.5 108Z" fill="black"/>
</svg>
